
<svg width="1000" height="1000" viewBox="0 0 1000 1000" xmlns="http://www.w3.org/2000/svg">
  <style>
    .st0{fill:#144F5D;}
    .st1{fill:#FFC107;}
    .st2{fill:#76A4B1;}
    .st3{fill:#4A6572;}
    .st4{fill:#2F855A;}
    .st5{fill:#FFFFFF;}
  </style>
  <g>
    <circle class="st0" cx="500" cy="500" r="450" opacity="0.1"/>
    <g transform="translate(200, 250)">
      <path class="st0" d="M300,0 L600,200 L300,400 L0,200 Z" opacity="0.7"/>
      <path class="st1" d="M300,50 L500,150 L300,250 L100,150 Z" opacity="0.9"/>
      <path class="st2" d="M300,100 L400,150 L300,200 L200,150 Z"/>
      
      <!-- Devices and tech elements -->
      <rect class="st5" x="270" y="270" width="60" height="40" rx="2"/>
      <rect class="st3" x="280" y="280" width="40" height="20" opacity="0.7"/>
      
      <rect class="st5" x="350" y="290" width="30" height="50" rx="2"/>
      <rect class="st3" x="355" y="295" width="20" height="30" opacity="0.7"/>
      
      <rect class="st5" x="220" y="290" width="30" height="50" rx="2"/>
      <rect class="st3" x="225" y="295" width="20" height="30" opacity="0.7"/>
      
      <!-- Code elements -->
      <rect class="st5" x="170" y="170" width="70" height="10" rx="2" opacity="0.5"/>
      <rect class="st5" x="180" y="190" width="50" height="10" rx="2" opacity="0.5"/>
      <rect class="st5" x="190" y="210" width="30" height="10" rx="2" opacity="0.5"/>
      
      <rect class="st5" x="360" y="170" width="70" height="10" rx="2" opacity="0.5"/>
      <rect class="st5" x="370" y="190" width="50" height="10" rx="2" opacity="0.5"/>
      <rect class="st5" x="380" y="210" width="30" height="10" rx="2" opacity="0.5"/>
      
      <!-- Abstract tech elements -->
      <circle class="st4" cx="150" cy="150" r="15" opacity="0.7"/>
      <circle class="st4" cx="450" cy="150" r="15" opacity="0.7"/>
      
      <path class="st1" d="M150,150 L200,130 L250,150 L200,170 Z" opacity="0.5"/>
      <path class="st1" d="M450,150 L400,130 L350,150 L400,170 Z" opacity="0.5"/>
      
      <!-- Center circle with icon -->
      <circle class="st5" cx="300" cy="150" r="30"/>
      <path class="st0" d="M285,150 L315,150 M300,135 L300,165" stroke-width="5"/>
      <path class="st0" d="M280,130 L320,170 M280,170 L320,130" stroke-width="3"/>
    </g>
  </g>
</svg>
